<svg version="1.2" xmlns="http://www.w3.org/2000/svg" viewBox="0 0 1545 1047" width="1545" height="1047">
	<title>logo-epita-svg</title>
	<defs>
		<clipPath clipPathUnits="userSpaceOnUse" id="cp1">
			<path d="m0 0h1545v1046.59h-1545z"/>
		</clipPath>
		<linearGradient id="g1" x2="1" gradientUnits="userSpaceOnUse" gradientTransform="matrix(0,-843.147,1141.787,0,974.107,910.998)">
			<stop offset="0" stop-color="#004563"/>
			<stop offset=".16" stop-color="#005c82"/>
			<stop offset=".43" stop-color="#007dad"/>
			<stop offset=".66" stop-color="#0095cd"/>
			<stop offset=".86" stop-color="#00a4e0"/>
			<stop offset="1" stop-color="#00a9e7"/>
		</linearGradient>
		<clipPath clipPathUnits="userSpaceOnUse" id="cp2">
			<path d="m-20.13-20.64h818.4v1094.54h-818.4z"/>
		</clipPath>
		<linearGradient id="g2" x2="1" gradientUnits="userSpaceOnUse" gradientTransform="matrix(0,1046.592,-795.845,0,397.923,0)">
			<stop offset="0" stop-color="#004563"/>
			<stop offset=".04" stop-color="#004e6f"/>
			<stop offset=".17" stop-color="#006a94"/>
			<stop offset=".31" stop-color="#0081b2"/>
			<stop offset=".45" stop-color="#0093c9"/>
			<stop offset=".61" stop-color="#009fda"/>
			<stop offset=".78" stop-color="#00a7e4"/>
			<stop offset="1" stop-color="#00a9e7"/>
		</linearGradient>
		<linearGradient id="g3" x2="1" gradientUnits="userSpaceOnUse" gradientTransform="matrix(0,-771.78,1334.837,0,781.482,780.966)">
			<stop offset="0" stop-color="#004563"/>
			<stop offset=".16" stop-color="#005c82"/>
			<stop offset=".43" stop-color="#007dad"/>
			<stop offset=".66" stop-color="#0095cd"/>
			<stop offset=".86" stop-color="#00a4e0"/>
			<stop offset="1" stop-color="#00a9e7"/>
		</linearGradient>
	</defs>
	<style>
		.s0 { fill: url(#g1) } 
		.s1 { fill: url(#g2) } 
		.s2 { fill: url(#g3) } 
		.s3 { fill: #ffffff } 
	</style>
	<g id="Clip-Path" clip-path="url(#cp1)">
		<g id="Layer">
			<path id="Layer" class="s0" d="m403.2 911l1141.8-293.8-731.3-549.3z"/>
			<g id="Layer">
				<g id="Clip-Path" clip-path="url(#cp2)">
					<g id="Layer">
						<path id="Layer" class="s1" d="m0 485.8l795.8 560.8-45.2-1046.6z"/>
					</g>
				</g>
				<g id="Layer">
					<path id="Layer" class="s2" d="m1133.8 9.2l315.1 771.8h-1334.8z"/>
				</g>
				<path id="Layer" fill-rule="evenodd" class="s3" d="m1127.7 622.2l-19.1 48.9h-57.7l142.6-370.7 142.4 370.9h-57.6l-18.7-49zm20.4-53.9h90.8l-45.4-117.9zm-302.9-253.8h230.6v55.7h-88.4v297.7h-53.8v-297.6h-88.4zm-100.6-4.1h53.9v359.4h-53.9zm-199.7 283.8v75.9h-53.8v-356h57.8c37.4-0.4 73.3 14.2 99.9 40.6 26.5 26.3 41.4 62.1 41.4 99.4 0 37.4-14.9 73.2-41.4 99.5-26.6 26.4-62.5 41-99.9 40.6zm-0.1-53.3h4.1c5.7 0.1 11.4-0.4 17-1.4 5.6-1.1 11.1-2.7 16.4-4.9 5.3-2.2 10.3-4.9 15-8.1 4.7-3.2 9.1-6.9 13.1-11 12.2-12.2 20.4-27.7 23.8-44.5 3.3-16.9 1.6-34.4-5-50.3-6.5-15.9-17.7-29.4-32-39-14.3-9.5-31.1-14.6-48.3-14.6h-4.1zm-284.2-224.6h163.8v53.8h-109.8v96h109.8v53.9h-109.8v96.2h109.7v53.6h-163.7z"/>
				<path id="Layer" fill-rule="evenodd" class="s3" d="m1333.9 718.7h-19.2v8.9h17v5.4h-17v8.9h19.4v5.2h-25.5v-33.9h25.2zm-34.5 13.7c0.2 2 0 4-0.6 6-0.6 1.9-1.7 3.6-3.1 5.1-1.4 1.4-3.1 2.6-5 3.3-1.9 0.7-3.9 1-5.9 0.8-2 0.2-4-0.1-5.9-0.8-1.8-0.7-3.5-1.8-4.9-3.2-1.4-1.4-2.4-3.2-3.1-5-0.6-1.9-0.8-3.9-0.6-5.9v-19.5h6v19.3c0 6.2 3.2 9.6 8.5 9.6 5.4 0 8.6-3.1 8.6-9.4v-19.5h5.9zm-36.4 11.4l-3.8 4.3-4.1-3.7c-6.6 4.7-15.6 4.2-21.7-1.1-6.1-5.3-7.8-14.2-4.1-21.4 3.8-7.2 12-10.9 19.8-9 7.9 2 13.5 9 13.5 17.1q0 1.5-0.2 2.8-0.3 1.4-0.7 2.8-0.4 1.3-1.1 2.5-0.6 1.3-1.5 2.4zm-18.2-8.4l3.8-4.4 6 5.3q0.4-0.7 0.8-1.5 0.3-0.7 0.5-1.5 0.2-0.9 0.3-1.7 0.1-0.8 0.1-1.7c0.1-1.5-0.2-3.1-0.8-4.5-0.5-1.4-1.4-2.8-2.4-3.9-1.1-1.1-2.4-2-3.8-2.6-1.4-0.6-3-0.9-4.5-0.9-1.6 0-3.1 0.3-4.5 0.9-1.4 0.6-2.7 1.5-3.8 2.6-1.1 1.1-1.9 2.5-2.4 3.9-0.6 1.5-0.8 3-0.7 4.5-0.1 1.6 0.1 3.2 0.7 4.7 0.5 1.4 1.3 2.8 2.4 3.9 1.1 1.2 2.4 2.1 3.8 2.7 1.5 0.6 3 1 4.6 1q0.8 0 1.5-0.1 0.8-0.1 1.5-0.3 0.8-0.2 1.5-0.6 0.7-0.3 1.3-0.7zm-32.3-22.2h6v33.9h-6zm-18.5 34h-6v-28.4h-10.8v-5.6h27.6v5.6h-10.8zm-17 0h-6.3l-3.4-8.2h-16l-3.5 8.2h-6l14.9-34.2h5.5zm-17.5-27l-5.9 13.6h11.7zm-41.2 18.6h-0.2l-10.7-15.8v24.2h-6v-33.9h6.4l10.4 15.9 10.3-15.9h6.4v33.9h-6v-24.3zm-31.1 8.3l-8.4-12h-7.4v12h-6v-33.9h15.1c7.8 0 12.6 4.1 12.6 10.7q0 1.8-0.5 3.5-0.6 1.7-1.7 3.2-1.1 1.4-2.6 2.3-1.5 1-3.3 1.3l9.2 12.9zm-7.2-28.5h-8.6v11.4h8.7c4.3 0 7-2.2 7-5.7-0.1-3.8-2.7-5.7-7.1-5.7zm-24.2 18.3c-0.9 2.1-2.2 4.1-3.9 5.7-1.6 1.7-3.6 3-5.8 3.8-2.2 0.9-4.5 1.3-6.8 1.2-7.2 0-13.7-4.4-16.4-11-2.7-6.6-1.2-14.3 3.9-19.3 5.1-5.1 12.8-6.6 19.4-3.8 6.6 2.8 10.9 9.3 10.8 16.5 0.1 2.4-0.3 4.7-1.2 6.9zm-5-6.9c0-1.5-0.2-3.1-0.8-4.5-0.5-1.5-1.4-2.8-2.5-3.9-1-1.1-2.3-2-3.7-2.6-1.5-0.6-3-0.9-4.5-1-1.6 0.1-3.1 0.4-4.5 1-1.5 0.6-2.7 1.5-3.8 2.6-1.1 1.1-1.9 2.4-2.4 3.9-0.6 1.4-0.8 3-0.8 4.5 0 1.6 0.2 3.1 0.8 4.6 0.5 1.4 1.4 2.8 2.4 3.9 1.1 1.1 2.4 2 3.8 2.7 1.5 0.6 3 0.9 4.6 0.9 1.5 0 3-0.3 4.4-0.9 1.5-0.6 2.7-1.5 3.8-2.6 1.1-1.1 1.9-2.5 2.5-3.9 0.5-1.5 0.7-3 0.7-4.5zm-35-11.4h-19.3v9.3h17v5.3h-17.1v13.9h-6v-33.9h25.2zm-41-5.5h6v33.9h-5l-18.7-24.1v24.1h-6v-33.9h5.6l18.1 23.4zm-39.9 0h6v34h-6zm-31.4 0h6v33.9h-5l-18.7-24.1v24.1h-6v-33.9h5.6l18.1 23.5zm-32.2 5.5h-19.1v8.9h17v5.4h-17v8.9h19.4v5.2h-25.4v-33.9h25.1zm-67.8 3.5c0 2.7 1.5 3.8 8 5.4 7.2 1.7 10.9 4.3 10.9 10 0 6.4-4.8 10.1-11.9 10.1q-2 0.1-3.9-0.3-1.9-0.4-3.7-1-1.8-0.7-3.5-1.8-1.6-1-3.1-2.3l3.6-4.3q1.1 1.1 2.3 1.9 1.2 0.8 2.6 1.4 1.4 0.5 2.8 0.8 1.5 0.3 3 0.3c3.6 0 5.9-1.8 5.9-4.2 0-2.5-1.3-3.8-7.6-5.3-7.2-1.7-11.3-4.2-11.3-10.1 0.1-1.4 0.4-2.8 1-4.1 0.7-1.3 1.5-2.5 2.6-3.4 1.1-0.9 2.4-1.6 3.7-2 1.4-0.4 2.9-0.6 4.3-0.4q1.6 0 3.3 0.2 1.6 0.3 3.2 0.8 1.6 0.6 3.1 1.4 1.4 0.8 2.7 1.9l-3.2 4.5q-1-0.8-2.1-1.4-1-0.7-2.2-1.1-1.2-0.5-2.4-0.7-1.3-0.3-2.5-0.3c-3.5 0-5.5 1.8-5.5 4.1zm-19.4 24.9l-8.4-12h-7.4v12h-6v-33.9h15.1c7.8 0 12.6 4.1 12.6 10.8q0.1 1.8-0.5 3.5-0.6 1.7-1.7 3.1-1.1 1.4-2.6 2.3-1.5 1-3.3 1.4l9.2 12.8zm-0.1-22.8c0-3.7-2.7-5.7-7.1-5.7h-8.6v11.5h8.7c4.2 0 7-2.2 7-5.7zm-31.1 8.2c0.3 2 0.1 4-0.6 5.9-0.6 1.9-1.6 3.7-3 5.1-1.4 1.5-3.1 2.6-5 3.3-1.9 0.8-3.9 1-6 0.9-1.9 0.1-3.9-0.1-5.8-0.8-1.8-0.7-3.5-1.8-4.9-3.3-1.4-1.4-2.4-3.1-3.1-5-0.6-1.9-0.8-3.9-0.6-5.8v-19.6h6v19.3c0 6.3 3.3 9.7 8.6 9.7 5.3 0 8.5-3.2 8.5-9.4v-19.6h6zm-36.8-13.7h-19.2v9h17.1v5.3h-17.1v9h19.5v5.1h-25.4v-33.9h25zm-41.3-5.5h6v33.9h-6zm-16 0h6v34h-5l-18.7-24.2v24.2h-6v-34h5.5l18.2 23.5zm-48.2-2.8l5.2-8 5.3 2.4-6 5.6zm16.1 8.3h-19.2v8.9h17v5.4h-16.9v8.9h19.4v5.2h-25.4v-33.9h25zm-37.2 25.9q-1.6 1-3.4 1.7-1.9 0.7-3.8 1-1.9 0.4-3.8 0.4c-2.3 0.1-4.7-0.3-6.8-1.2-2.2-0.8-4.2-2.1-5.8-3.7-1.7-1.7-3-3.6-3.8-5.8-0.9-2.2-1.3-4.5-1.2-6.8 0-2.3 0.4-4.6 1.3-6.8 0.8-2.1 2.1-4.1 3.7-5.7 1.7-1.7 3.6-3 5.8-3.8 2.1-0.9 4.4-1.3 6.7-1.3q1.8-0.1 3.5 0.2 1.8 0.2 3.5 0.8 1.7 0.6 3.2 1.5 1.5 0.9 2.9 2.1l-3.9 4.5q-0.9-0.9-2-1.6-1.1-0.7-2.3-1.2-1.3-0.4-2.5-0.6-1.3-0.3-2.6-0.2c-3.1 0.3-5.9 1.7-8 4-2 2.3-3.1 5.2-3 8.3 0 3.1 1.3 6 3.4 8.2 2.1 2.2 5 3.5 8.1 3.6q1.1 0.1 2.2-0.1 1.1-0.2 2.1-0.5 1-0.3 2-0.8 1-0.5 1.9-1.1v-6.4h-8.7v-5.2h14.5v14.3q-1.5 1.3-3.2 2.2zm-42.7-31.4h5.9v33.9h-5l-18.7-24.2v24.2h-5.9v-33.9h5.5l18.2 23.4zm-39.9 0h6v33.9h-6zm-12.8 6.7h-2.4v-6.7h6.4v5.7c0.1 1 0 2.1-0.3 3.1-0.3 1-0.8 1.9-1.5 2.7-0.7 0.8-1.6 1.4-2.6 1.8-1 0.3-2 0.5-3.1 0.4l-0.6-2.5c3-0.5 4.4-2 4.1-4.5zm-11.4 17c-0.9 2.2-2.2 4.1-3.9 5.7-1.7 1.6-3.7 2.8-5.8 3.6-2.2 0.8-4.5 1.2-6.8 1h-12.7v-33.9h12.7c2.3-0.1 4.6 0.2 6.7 1 2.2 0.8 4.2 2 5.9 3.6 1.7 1.6 3 3.5 3.9 5.6 0.9 2.1 1.4 4.4 1.4 6.7 0 2.3-0.5 4.6-1.4 6.7zm-5.6-11.2c-0.6-1.5-1.5-2.8-2.6-3.9-1.1-1.1-2.4-1.9-3.9-2.5-1.4-0.5-3-0.7-4.5-0.6h-6.7v23h6.7c1.6 0.1 3.1-0.1 4.6-0.6 1.4-0.6 2.8-1.4 3.9-2.5 1.1-1.1 2-2.4 2.5-3.8 0.6-1.5 0.9-3 0.8-4.6 0-1.5-0.3-3.1-0.8-4.5zm-47.5-7h-19.2v9h17v5.3h-17v9h19.5v5.2h-25.4v-33.9h25zm-56.1-5.5h6v28.4h17.9v5.5h-23.9zm-9.6 23.8c-0.9 2.2-2.2 4.1-3.9 5.8-1.7 1.6-3.7 2.9-5.9 3.8-2.2 0.8-4.5 1.2-6.9 1.1-7.2-0.1-13.6-4.5-16.3-11.1-2.6-6.7-1-14.3 4.1-19.3 5.1-5 12.7-6.5 19.3-3.7 6.6 2.8 10.9 9.3 10.9 16.5 0 2.3-0.4 4.7-1.3 6.9zm-5-6.9c0-1.6-0.2-3.1-0.8-4.5-0.5-1.5-1.4-2.8-2.5-3.9-1-1.1-2.3-2-3.8-2.6-1.4-0.6-2.9-1-4.5-1-1.5 0-3 0.3-4.4 1-1.5 0.6-2.8 1.5-3.8 2.6-1.1 1.1-1.9 2.4-2.5 3.9-0.5 1.4-0.7 3-0.7 4.5 0 1.6 0.2 3.1 0.8 4.6 0.5 1.4 1.3 2.8 2.4 3.9 1.1 1.1 2.4 2 3.8 2.7 1.5 0.6 3 0.9 4.6 0.9 1.5 0 3-0.3 4.5-0.9 1.4-0.6 2.7-1.5 3.7-2.6 1.1-1.2 1.9-2.5 2.5-3.9 0.5-1.5 0.8-3 0.7-4.6zm-53.7 16.6c-6.9-2.6-11.5-9.2-11.6-16.6 0-7.3 4.4-14 11.3-16.7 6.8-2.7 14.7-0.9 19.6 4.5l-3.8 4.5q-0.9-1-2-1.8-1.1-0.8-2.3-1.3-1.2-0.6-2.5-0.9-1.4-0.3-2.7-0.3c-3.2 0-6.3 1.3-8.5 3.5-2.3 2.3-3.5 5.4-3.5 8.5 0 3.2 1.2 6.3 3.5 8.6 2.2 2.2 5.3 3.5 8.5 3.5q1.4 0 2.7-0.3 1.4-0.3 2.6-0.9 1.3-0.5 2.4-1.4 1.1-0.8 2.1-1.8l3.8 3.9c-4.9 5.6-12.7 7.5-19.6 5zm-34.4-36.2l5.2-8 5.3 2.4-6 5.6zm16.1 8.2h-19.2v9h17v5.3h-17v9h19.4v5.2h-25.4v-33.9h25.2z"/>
			</g>
		</g>
	</g>
</svg>